<?xml version="1.0"?>
<svg version="1.1" xmlns="http://www.w3.org/2000/svg" width="175px" height="36px" style=""><path fill="#e8590c" d="M15.596,27.464c0,4.536-3.668,5.656-7.644,5.656l-5.208,0c-0.588,0-0.728-0.224-0.728-0.812l0-17.836c0-0.588,0.252-0.728,0.84-0.728l4.2,0c4.508,0,7.028,1.372,7.028,4.732c0,1.96-1.12,3.668-3.164,4.116l0,0.028c2.66,0.196,4.676,2.016,4.676,4.844z M10.556,18.896c0-1.82-1.428-2.408-3.388-2.408l-1.568,0l0,5.208l1.456,0c2.044,0,3.5-0.532,3.5-2.8z M11.928,27.352c0-1.316-0.588-2.156-1.484-2.604c-0.868-0.42-1.82-0.504-2.996-0.504l-1.848,0l0,6.104l2.072,0c0.98,0,1.932-0.084,2.632-0.364c0.98-0.42,1.624-1.288,1.624-2.632z M34.314,32.784c0,0.224-0.168,0.336-0.42,0.336l-2.548,0c-0.504,0-0.84-0.14-1.092-0.56l-4.032-6.58l-2.156,0l0,6.44c0,0.42-0.168,0.7-0.644,0.7l-2.296,0c-0.476,0-0.672-0.224-0.672-0.7l0-17.864c0-0.616,0.14-0.812,0.756-0.812l4.144,0c2.436,0,5.012,0.364,6.496,2.072c0.896,1.036,1.344,2.408,1.344,3.92c0,2.576-1.372,4.592-3.612,5.572l4.592,7.084c0.084,0.14,0.14,0.28,0.14,0.392z M29.526,19.792c0-2.436-1.624-3.304-4.06-3.304l-1.4,0l0,6.776l1.736,0c2.24,0,3.724-1.204,3.724-3.472z M54.852,24.524c0,5.768-2.716,8.932-8.176,8.932c-5.908,0-8.064-3.248-8.064-8.988l0-10.052c0-0.476,0.28-0.672,0.728-0.672l2.212,0c0.476,0,0.672,0.196,0.672,0.672l0,9.744c0,4.116,1.064,6.244,4.592,6.244c3.388,0,4.452-2.24,4.452-6.244l0-9.744c0-0.476,0.252-0.672,0.7-0.672l2.212,0c0.476,0,0.672,0.196,0.672,0.672l0,10.108z M76.818,32.364c0,0.616-0.252,0.756-0.672,0.756l-1.876,0c-0.42,0-0.784-0.196-1.064-0.588l-9.128-12.488l-0.056,0l0,12.348c0,0.532-0.252,0.728-0.728,0.728l-2.016,0c-0.532,0-0.756-0.14-0.756-0.7l0-17.92c0-0.588,0.252-0.756,0.756-0.756l1.82,0c0.448,0,0.672,0.14,0.952,0.532l9.212,12.656l0.056,0l0-12.46c0-0.532,0.252-0.728,0.728-0.728l2.1,0c0.588,0,0.672,0.308,0.672,0.756l0,17.864z M98.28,32.672c0,0.28-0.14,0.448-0.504,0.448l-2.492,0c-0.588,0-0.784-0.224-0.952-0.672l-1.456-4.116l-7.084,0l-1.456,4.2c-0.112,0.364-0.308,0.588-0.756,0.588l-2.492,0c-0.28,0-0.392-0.14-0.392-0.364c0-0.084,0-0.196,0.056-0.308l6.832-18.144c0.14-0.336,0.336-0.56,0.756-0.56l2.24,0c0.42,0,0.672,0.196,0.784,0.504l6.86,18.06c0.056,0.14,0.056,0.252,0.056,0.364z M91.924,25.616l-1.988-5.908c-0.252-0.784-0.42-1.372-0.56-1.82l-0.056,0c-0.14,0.476-0.308,1.064-0.588,1.848l-1.988,5.88l5.18,0z M116.214,31.748c0,0.252-0.112,0.42-0.448,0.56c-1.848,0.756-3.528,1.148-5.572,1.148c-5.908,0-8.792-4.172-8.792-9.94c0-5.74,3.444-10.136,9.072-10.136c1.932,0,3.668,0.392,5.264,1.176c0.336,0.168,0.448,0.308,0.448,0.476c0,0.112-0.028,0.224-0.084,0.364l-0.644,1.764c-0.084,0.252-0.224,0.364-0.392,0.364c-0.084,0-0.196-0.056-0.308-0.112c-1.4-0.728-2.66-1.008-4.06-1.008c-3.892,0-5.404,3.584-5.404,6.972c0,4.312,2.016,7.056,5.46,7.056c1.344,0,2.716-0.308,4.032-0.896c0.14-0.056,0.252-0.112,0.336-0.112c0.196,0,0.336,0.14,0.448,0.42l0.56,1.512c0.056,0.14,0.084,0.28,0.084,0.392z M135.66,32.42c0,0.504-0.196,0.7-0.672,0.7l-2.212,0c-0.504,0-0.728-0.196-0.728-0.7l0-7.812l-7.952,0l0,7.812c0,0.504-0.224,0.7-0.7,0.7l-2.184,0c-0.504,0-0.756-0.196-0.756-0.7l0-18.004c0-0.476,0.308-0.672,0.756-0.672l2.184,0c0.448,0,0.7,0.168,0.7,0.672l0,7.308l7.952,0l0-7.308c0-0.476,0.28-0.672,0.728-0.672l2.212,0c0.448,0,0.672,0.168,0.672,0.672l0,18.004z M157.766,23.32c0,6.328-3.612,10.136-8.624,10.136c-5.348,0-8.428-3.892-8.428-9.968c0-6.02,3.36-10.108,8.624-10.108c5.544,0,8.428,4.2,8.428,9.94z M153.902,23.404c0-4.704-1.652-6.972-4.648-6.972c-2.8,0-4.676,2.604-4.676,6.972c0,4.648,1.708,7,4.676,7c2.772,0,4.648-2.436,4.648-7z M174.58,27.464c0,3.892-3.164,5.992-6.804,5.992c-1.68,0-3.668-0.308-5.348-0.896c-0.364-0.14-0.476-0.308-0.476-0.532c0-0.112,0-0.224,0.056-0.364l0.588-1.82c0.084-0.28,0.224-0.448,0.504-0.448c0.112,0,0.252,0.028,0.42,0.084c1.316,0.476,2.772,0.84,4.172,0.84c1.512,0,3.22-0.728,3.22-2.492c0-1.288-0.952-1.988-2.044-2.52l-3.64-1.82c-1.988-0.98-3.304-2.632-3.304-4.816c0-3.416,3.36-5.292,6.468-5.292c1.848,0,3.388,0.28,5.012,0.98c0.364,0.168,0.56,0.336,0.56,0.56c0,0.112-0.028,0.224-0.084,0.364l-0.672,1.708c-0.112,0.308-0.28,0.42-0.476,0.42c-0.14,0-0.28-0.056-0.448-0.112c-1.148-0.476-2.576-0.868-3.696-0.868c-1.316,0-2.828,0.56-2.828,2.128c0,1.148,1.064,1.82,1.988,2.268l3.108,1.512c2.212,1.064,3.724,2.548,3.724,5.124z"/><path fill="#" d=""/></svg>
